<svg width="109" height="54" viewBox="0 0 109 54" fill="none" xmlns="http://www.w3.org/2000/svg">
<g clip-path="url(#clip0_2_79)">
<path d="M33.639 16.6274H40.5077V18.8745H37.2403V34.6631H33.639V16.6274ZM44.58 27.8924L45.1972 18.8745H45.4039L46.0211 27.8924H44.58ZM40.5919 34.6631H44.1179L44.4514 29.8733H46.1495L46.4846 34.6631H50.0091L48.131 16.6274H42.47L40.5919 34.6631ZM55.1667 28.3507V31.7508C55.1667 32.2091 55.521 32.3421 55.7277 32.3421C56.0673 32.3421 56.3036 32.0613 56.3036 31.7508V27.5526C56.3036 26.9907 56.2001 26.3698 54.8565 26.3698H53.3947V24.3889H54.9156C55.9344 24.3889 56.3036 24.1524 56.3036 23.0436V19.4659C56.3036 19.1554 56.0673 18.8745 55.7276 18.8745C55.521 18.8745 55.1667 18.9927 55.1667 19.4659V22.4077H51.5638V19.8503C51.5638 18.5937 51.7114 16.6274 54.2361 16.6274H57.2188C59.7436 16.6274 59.9061 18.5937 59.9061 19.8503V22.7329C59.9061 24.6991 58.5329 25.2314 57.4551 25.1869V25.3644C59.8765 25.3053 59.9061 27.1678 59.9061 27.8036V31.4404C59.9061 32.7117 59.7436 34.6631 57.2188 34.6631H54.2361C51.7114 34.6631 51.5638 32.7116 51.5638 31.4403V28.3507H55.1667ZM62.2687 16.6274H70.611V34.6631H67.0083V18.8745H65.8714V34.6631H62.2687V16.6274ZM76.5761 26.5471V18.8747H77.0487C77.4325 18.8747 77.713 19.1997 77.713 19.7764V25.6453C77.713 26.222 77.4325 26.547 77.0485 26.547L76.5761 26.5471ZM72.9734 34.6631H76.5761V28.528H78.643C81.1533 28.528 81.3157 26.5766 81.3157 25.3052V19.8503C81.3157 18.5937 81.1533 16.6274 78.6432 16.6274H72.9734V34.6631ZM88.4177 31.7508C88.4177 32.0613 88.1814 32.3421 87.8419 32.3421C87.635 32.3421 87.2808 32.2091 87.2808 31.7508V19.4659C87.2808 18.9927 87.6352 18.8745 87.8419 18.8745C88.1814 18.8745 88.4177 19.1554 88.4177 19.4659V31.7508ZM83.6781 31.4404C83.6781 32.7117 83.8404 34.6631 86.3506 34.6631H89.3479C91.858 34.6631 92.0204 32.7116 92.0204 31.4403V19.8503C92.0204 18.5937 91.8581 16.6274 89.3479 16.6274H86.3506C83.8406 16.6274 83.6781 18.5937 83.6781 19.8503V31.4404ZM103.744 16.6274H108.439V34.6631H104.837V23.3539H104.704L102.843 34.6631H99.964L98.1184 23.3539H97.9856V34.6631H94.3828V16.6274H99.0634L101.411 29.3115L103.744 16.6274ZM28.9702 9.97503C27.8674 5.14087 25.1032 1.20857 24.7223 0.572754C24.1199 1.47446 21.9155 4.94874 20.7948 8.7923C19.5707 13.0942 19.3906 16.9083 19.813 20.6485C20.2323 24.4034 21.8165 28.262 21.8165 28.262C22.6582 30.2725 23.919 32.4455 24.7401 33.51C25.9433 31.943 28.7089 27.2714 29.5712 21.1807C30.0511 17.7805 30.0718 14.8092 28.9702 9.97503V9.97503ZM24.7223 32.2978C24.1805 31.2778 23.3388 29.341 23.259 26.3252C23.2383 23.4278 24.4004 20.9293 24.7401 20.412C25.0427 20.9295 26.0437 23.1025 26.1634 26.074C26.2445 28.9716 25.2819 31.2628 24.7223 32.2978ZM28.6499 18.1796C28.6085 20.0276 28.3885 21.979 28.1079 23.147C28.2084 21.1364 27.9678 18.3128 27.507 16.0953C27.0463 13.8925 25.7425 10.1968 24.7017 8.49662C23.7405 10.1229 22.5562 13.316 21.9361 16.0805C21.313 18.8449 21.2954 22.2008 21.2954 23.2061C21.1299 22.3633 20.7165 19.3329 20.8331 16.3023C20.9307 13.8039 21.5153 11.2169 21.8357 10.0341C23.0582 6.08702 24.4417 3.55906 24.7016 3.15982C24.9616 3.55906 26.7037 6.67839 27.6074 9.9454C28.5067 13.2126 28.6882 16.3466 28.6499 18.1798" fill="black" fill-opacity="0.18"/>
<path d="M26.593 34.6335H18.2079V40.266C18.2154 40.266 18.2212 40.2512 18.2286 40.2512C20.2042 38.2703 23.4083 38.2703 25.3853 40.2512C27.3609 42.2174 27.3609 45.4253 25.3853 47.4064C25.3764 47.4211 25.3675 47.4211 25.3587 47.4359C25.3484 47.4359 25.338 47.4507 25.3291 47.4655C23.358 49.4169 20.783 50.3925 18.2079 50.3925C15.6211 50.3925 13.0342 49.4169 11.0616 47.4359C7.58288 43.9617 7.17092 38.5658 9.82276 34.6335C10.1868 34.0926 10.6017 33.5876 11.0616 33.1257C13.0342 31.1448 15.6211 30.169 18.2079 30.169V16.6274C8.26803 16.6274 0.210693 24.6843 0.210693 34.6335C0.210693 44.5827 8.26803 52.6545 18.2079 52.6545C23.3905 52.6545 28.0593 50.4516 31.3429 46.9481V34.6335H26.593ZM108.439 39.9324H33.639V52.6545H108.439V39.9324ZM101.971 48.8138H102.92V46.8934H101.971V48.8138ZM101.971 45.4532H103.407L104.369 45.9334L104.606 46.4134L104.843 47.3736V47.8536C104.818 51.293 102.608 50.0339 100.285 50.2541V42.3328H101.971V45.4532ZM89.497 42.3328V43.773H88.2982V50.2541H86.3877V43.773H85.1891V42.3328H89.497ZM72.0031 48.0937H72.2403L72.7148 47.8536V44.493H72.0031V48.0937ZM70.0802 44.4932H69.3559V47.8536L69.8428 48.0937H70.0802V44.4932ZM72.0031 42.3328V43.0529H73.2019L73.9136 43.5329L74.4005 44.013L74.6377 44.9732V47.6137L74.4007 48.5738L73.9136 49.0538L73.2019 49.5338H72.0031V50.2539H70.0802V49.5338H68.8814L68.1572 49.0538L67.6828 48.5738L67.4455 47.6137V44.9732L67.6826 44.013L68.1572 43.5329L68.8814 43.0529H70.0802V42.3328H72.0031ZM56.4148 42.3328V43.773H54.9764V45.4532H56.4148V46.8934H54.9764V48.8138H56.6546V50.2539H53.0584V42.3328H56.4148ZM39.1532 45.4532H40.1122V42.3328H41.7904V50.2541H40.1122V46.8934H39.1532V50.2541H37.2352V42.3328H39.1532V45.4532Z" fill="black" fill-opacity="0.18"/>
</g>
<defs>
<clipPath id="clip0_2_79">
<rect width="108.228" height="53.2271" fill="white" transform="translate(0.210693)"/>
</clipPath>
</defs>
</svg>
