<svg width="56" height="57" viewBox="0 0 56 57" fill="none" xmlns="http://www.w3.org/2000/svg">
<path d="M0.758541 55.9001C0.614734 55.8221 0.494282 55.7072 0.409548 55.5672C0.324814 55.4272 0.278847 55.2672 0.276368 55.1036C0.273885 54.94 0.314978 54.7786 0.395429 54.6362C0.475876 54.4937 0.592788 54.3752 0.73416 54.2928L17.9654 44.5097L2.60937 34.9084C2.45211 34.8087 2.32873 34.6637 2.25545 34.4925C2.18217 34.3213 2.16242 34.132 2.19882 33.9494C2.23521 33.7667 2.32603 33.5994 2.45933 33.4694C2.59263 33.3394 2.76217 33.2528 2.94564 33.2209L23.0891 29.8271L16.2708 7.08445C16.2155 6.89961 16.2197 6.70211 16.2826 6.51973C16.3455 6.33736 16.464 6.1793 16.6214 6.0678C16.7794 5.95576 16.9687 5.89663 17.1624 5.89888C17.356 5.90113 17.5439 5.96465 17.6992 6.08033L28.9619 14.5266L28.2852 1.40441C28.2754 1.20554 28.3303 1.00884 28.4415 0.843704C28.5528 0.678573 28.7145 0.553883 28.9025 0.488275C29.0904 0.42398 29.2941 0.422469 29.483 0.48397C29.6718 0.545472 29.8356 0.666657 29.9497 0.829283L42.5629 18.9342L51.4638 6.63894C51.4428 6.49027 51.4587 6.33872 51.5099 6.19761C51.5612 6.0565 51.6464 5.93014 51.7579 5.82966C51.8695 5.72917 52.004 5.65762 52.1497 5.62131C52.2954 5.58499 52.4478 5.58502 52.5934 5.62139C52.7391 5.65777 52.8736 5.72936 52.9851 5.8299C53.0966 5.93043 53.1818 6.05682 53.233 6.19795C53.2842 6.33908 53.3 6.49064 53.2789 6.63929C53.2578 6.78795 53.2006 6.92915 53.1122 7.05049L55.4651 23.9859C55.4818 24.1051 55.4748 24.2265 55.4445 24.343C55.4143 24.4596 55.3614 24.569 55.2889 24.6651C55.2163 24.7612 55.1256 24.8421 55.0218 24.9031C54.918 24.9642 54.8032 25.0041 54.684 25.0208C54.5647 25.0375 54.4434 25.0305 54.3268 25.0002C54.2103 24.97 54.1008 24.9171 54.0047 24.8446C53.9086 24.772 53.8277 24.6813 53.7667 24.5775C53.7057 24.4737 53.6657 24.3589 53.649 24.2397L51.6085 9.55911L43.29 21.0541C43.2043 21.1724 43.0916 21.2685 42.9612 21.3344C42.8309 21.4003 42.6866 21.4341 42.5406 21.4329C42.3945 21.4318 42.2508 21.3957 42.1215 21.3278C41.9922 21.2599 41.881 21.162 41.7971 21.0424L30.2817 4.51676L30.9003 16.3904C30.9172 16.7501 30.7295 17.0861 30.413 17.253C30.2591 17.3347 30.0852 17.3709 29.9115 17.3573C29.7378 17.3437 29.5716 17.2809 29.4323 17.1763L18.8271 9.23165L25.1438 30.3035C25.1806 30.4285 25.1906 30.5598 25.1729 30.6889C25.1553 30.818 25.1105 30.9419 25.0415 31.0525C24.9725 31.163 24.8809 31.2577 24.7727 31.3302C24.6644 31.4028 24.5421 31.4516 24.4136 31.4734L5.63803 34.6289L20.2449 43.77C20.3784 43.8553 20.4877 43.9735 20.5622 44.1133C20.6367 44.2531 20.6739 44.4097 20.6703 44.5681C20.6667 44.7264 20.6224 44.8812 20.5416 45.0174C20.4608 45.1537 20.3463 45.2668 20.2091 45.346L1.63942 55.8867C1.35844 56.0466 1.02955 56.0412 0.758541 55.9001Z" fill="#518F5A"/>
</svg>
