<svg width="79" height="50" viewBox="0 0 79 50" fill="none" xmlns="http://www.w3.org/2000/svg">
<path d="M33.7443 3.856L33.2298 4.71357L33.2414 4.72034L33.7443 3.856ZM41.3983 12.044L40.5099 12.503L41.3983 12.044ZM41.3093 37.142L42.2009 37.5949L42.2038 37.5892L41.3093 37.142ZM33.2993 46.042L33.8333 46.8875L33.8372 46.8851L33.2993 46.042ZM10.6043 46.398L10.0898 47.2556L10.1014 47.2624L10.6043 46.398ZM2.86134 38.121L1.97283 38.5801L1.97898 38.5916L2.86134 38.121ZM2.86134 13.112L1.96689 12.6648L1.96408 12.6705L2.86134 13.112ZM10.7823 4.212L11.3163 5.0575L11.3202 5.05506L10.7823 4.212ZM14.9653 5.28L15.638 6.01994L15.6391 6.01896L14.9653 5.28ZM10.3373 13.201L9.38542 12.8944L9.38227 12.9046L10.3373 13.201ZM12.5623 42.215L11.745 42.7912L12.5623 42.215ZM29.2053 44.885L28.5316 44.146L28.5261 44.1511L28.5207 44.1562L29.2053 44.885ZM33.8333 36.964L32.8814 36.6574L32.8783 36.6676L33.8333 36.964ZM31.6973 7.95L30.88 8.52615V8.52616L31.6973 7.95ZM22.6193 1.91899C26.6085 1.91899 30.136 2.85716 33.2298 4.71349L34.2588 2.9985C30.826 0.938831 26.9368 -0.0810051 22.6193 -0.0810051V1.91899ZM33.2414 4.72034C36.3301 6.51737 38.7523 9.1012 40.5099 12.503L42.2868 11.585C40.3657 7.8668 37.6853 4.99196 34.2472 2.99165L33.2414 4.72034ZM40.5099 12.503C42.2653 15.9006 43.1573 19.8329 43.1573 24.326H45.1573C45.1573 19.5631 44.21 15.3074 42.2868 11.585L40.5099 12.503ZM43.1573 24.326C43.1573 28.9359 42.2363 33.052 40.4149 36.6948L42.2038 37.5892C44.1797 33.6374 45.1573 29.2094 45.1573 24.326H43.1573ZM40.4178 36.6891C38.5977 40.2723 36.048 43.1024 32.7615 45.1989L33.8372 46.8851C37.4334 44.5909 40.2236 41.4877 42.2009 37.5949L40.4178 36.6891ZM32.7653 45.1965C29.5586 47.2218 25.8611 48.246 21.6403 48.246V50.246C26.2009 50.246 30.2761 49.1342 33.8333 46.8875L32.7653 45.1965ZM21.6403 48.246C17.7076 48.246 14.2051 47.336 11.1072 45.5337L10.1014 47.2624C13.5302 49.2573 17.385 50.246 21.6403 50.246V48.246ZM11.1188 45.5405C8.02037 43.6814 5.56241 41.0605 3.74369 37.6504L1.97898 38.5916C3.9576 42.3015 6.66163 45.1986 10.0898 47.2555L11.1188 45.5405ZM3.74976 37.662C1.99525 34.2662 1.10233 30.3047 1.10233 25.75H-0.897665C-0.897665 30.5699 0.0487528 34.8558 1.97291 38.58L3.74976 37.662ZM1.10233 25.75C1.10233 21.1964 1.99489 17.1378 3.75859 13.5535L1.96408 12.6705C0.0491147 16.5622 -0.897665 20.9289 -0.897665 25.75H1.10233ZM3.75576 13.5592C5.57807 9.91459 8.09812 7.09004 11.3163 5.05749L10.2483 3.36651C6.70255 5.60595 3.94193 8.71473 1.96691 12.6648L3.75576 13.5592ZM11.3202 5.05506C14.5864 2.97141 18.342 1.91899 22.6193 1.91899V-0.0810051C17.9966 -0.0810051 13.8609 1.06191 10.2445 3.36894L11.3202 5.05506ZM21.8183 1.521C18.9993 1.521 16.479 2.5466 14.2916 4.54104L15.6391 6.01896C17.4863 4.33473 19.5347 3.521 21.8183 3.521V1.521ZM14.2927 4.54006C12.1645 6.47471 10.5465 9.28918 9.38548 12.8945L11.2892 13.5075C12.3828 10.1115 13.8501 7.64529 15.638 6.01994L14.2927 4.54006ZM9.38227 12.9046C8.27676 16.4668 7.73534 20.6657 7.73534 25.483H9.73534C9.73534 20.8069 10.2619 16.8178 11.2924 13.4974L9.38227 12.9046ZM7.73534 25.483C7.73534 33.095 9.01724 38.9216 11.745 42.7912L13.3797 41.6388C11.0048 38.2698 9.73534 32.9417 9.73534 25.483H7.73534ZM11.745 42.7912C14.4623 46.646 18.0462 48.644 22.4413 48.644V46.644C18.7672 46.644 15.765 45.0227 13.3797 41.6388L11.745 42.7912ZM22.4413 48.644C25.2615 48.644 27.7574 47.6172 29.89 45.6138L28.5207 44.1562C26.7373 45.8315 24.7238 46.644 22.4413 46.644V48.644ZM29.8791 45.624C32.0635 43.6323 33.6841 40.8188 34.7884 37.2604L32.8783 36.6676C31.8466 39.9918 30.3819 42.459 28.5316 44.146L29.8791 45.624ZM34.7852 37.2705C35.9521 33.6468 36.5243 29.4151 36.5243 24.593H34.5243C34.5243 29.2642 33.9692 33.2798 32.8815 36.6575L34.7852 37.2705ZM36.5243 24.593C36.5243 17.0383 35.2417 11.2425 32.5147 7.37384L30.88 8.52616C33.2556 11.8962 34.5243 17.1957 34.5243 24.593H36.5243ZM32.5147 7.37384C29.7973 3.51903 26.2135 1.521 21.8183 1.521V3.521C25.4925 3.521 28.4947 5.1423 30.88 8.52615L32.5147 7.37384ZM71.4456 44.618L70.7948 45.3773L70.814 45.3938L70.8341 45.4093L71.4456 44.618ZM78.1206 46.131H79.1206V45.131H78.1206V46.131ZM78.1206 48L78.0836 48.9993L79.1206 49.0377V48H78.1206ZM54.2686 47.911L54.2392 46.9114L54.2269 46.9119L54.2686 47.911ZM52.1326 48H51.1326V49.0425L52.1742 48.9991L52.1326 48ZM52.1326 46.131V45.131H51.1326V46.131H52.1326ZM59.1636 44.529L58.6089 43.697L58.6016 43.7018L58.5944 43.7068L59.1636 44.529ZM60.6766 11.065L59.7595 11.4637L59.7628 11.4713L59.7662 11.4788L60.6766 11.065ZM57.6506 8.395L57.3221 9.3395L57.3461 9.34787L57.3706 9.355L57.6506 8.395ZM51.2426 7.683H50.2426V8.683H51.2426V7.683ZM51.2426 5.725L51.2152 4.72537L50.2426 4.75202V5.725H51.2426ZM61.9226 4.568L61.6992 3.59325L61.6947 3.59431L61.9226 4.568ZM69.5766 1.186H70.5766V-0.751251L68.9974 0.370819L69.5766 1.186ZM68.5766 38.833C68.5766 41.7175 69.2123 44.0209 70.7948 45.3773L72.0964 43.8587C71.1868 43.0791 70.5766 41.5258 70.5766 38.833H68.5766ZM70.8341 45.4093C72.4142 46.6303 74.9269 47.131 78.1206 47.131V45.131C75.0249 45.131 73.0876 44.6231 72.057 43.8267L70.8341 45.4093ZM77.1206 46.131V48H79.1206V46.131H77.1206ZM78.1576 47.0007C71.7551 46.7636 67.6409 46.644 65.8386 46.644V48.644C67.5962 48.644 71.67 48.7618 78.0836 48.9993L78.1576 47.0007ZM65.8386 46.644C64.1595 46.644 60.2866 46.7336 54.2392 46.9114L54.298 48.9106C60.3545 48.7324 64.195 48.644 65.8386 48.644V46.644ZM54.2269 46.9119L52.0909 47.0009L52.1742 48.9991L54.3102 48.9101L54.2269 46.9119ZM53.1326 48V46.131H51.1326V48H53.1326ZM52.1326 47.131C55.3569 47.131 57.9439 46.5896 59.7328 45.3512L58.5944 43.7068C57.2979 44.6044 55.1976 45.131 52.1326 45.131V47.131ZM59.7183 45.3611C61.7043 44.037 62.5666 41.7455 62.5666 38.833H60.5666C60.5666 41.3792 59.8268 42.885 58.6089 43.697L59.7183 45.3611ZM62.5666 38.833V17.295H60.5666V38.833H62.5666ZM62.5666 17.295C62.5666 14.4177 62.273 12.1605 61.5869 10.6512L59.7662 11.4788C60.2668 12.5802 60.5666 14.4763 60.5666 17.295H62.5666ZM61.5936 10.6663C60.8823 9.03019 59.6408 7.93382 57.9306 7.435L57.3706 9.355C58.5083 9.68684 59.2842 10.3705 59.7595 11.4637L61.5936 10.6663ZM57.9791 7.4505C56.4486 6.91814 54.1722 6.683 51.2426 6.683V8.683C54.1276 8.683 56.1233 8.92252 57.3221 9.3395L57.9791 7.4505ZM52.2426 7.683V5.725H50.2426V7.683H52.2426ZM51.27 6.72462C55.6382 6.60494 59.2717 6.21544 62.1505 5.54168L61.6947 3.59431C58.9961 4.22589 55.5096 4.60772 51.2152 4.72537L51.27 6.72462ZM62.146 5.54273C65.1146 4.86242 67.7882 3.68343 70.1558 2.00118L68.9974 0.370819C66.8556 1.89256 64.4266 2.96824 61.6992 3.59327L62.146 5.54273ZM68.5766 1.186V38.833H70.5766V1.186H68.5766Z" fill="white"/>
</svg>
