<svg width="29" height="18" viewBox="0 0 29 18" fill="none" xmlns="http://www.w3.org/2000/svg">
<path d="M8.76 0.0719986C10.2533 0.0719986 11.5867 0.423999 12.76 1.128C13.9333 1.81067 14.8507 2.792 15.512 4.072C16.1733 5.352 16.504 6.824 16.504 8.488C16.504 10.1947 16.1627 11.7307 15.48 13.096C14.7973 14.44 13.8373 15.5067 12.6 16.296C11.384 17.064 9.98667 17.448 8.408 17.448C6.936 17.448 5.61333 17.1067 4.44 16.424C3.26667 15.72 2.33867 14.728 1.656 13.448C0.994667 12.168 0.664 10.6853 0.664 9C0.664 7.31467 0.994667 5.8 1.656 4.456C2.33867 3.09067 3.288 2.024 4.504 1.256C5.74133 0.466666 7.16 0.0719986 8.76 0.0719986ZM8.472 0.647999C7.55467 0.647999 6.73333 0.978666 6.008 1.64C5.304 2.28 4.74933 3.22933 4.344 4.488C3.96 5.72533 3.768 7.19733 3.768 8.904C3.768 11.6133 4.22667 13.6187 5.144 14.92C6.06133 16.2213 7.24533 16.872 8.696 16.872C9.61333 16.872 10.424 16.5413 11.128 15.88C11.8533 15.2187 12.408 14.2693 12.792 13.032C13.1973 11.7733 13.4 10.2907 13.4 8.584C13.4 5.896 12.9413 3.90133 12.024 2.6C11.1067 1.29867 9.92267 0.647999 8.472 0.647999ZM25.6435 13.704C25.6435 14.7067 25.8675 15.4 26.3155 15.784C26.7848 16.1467 27.5848 16.328 28.7155 16.328V17C26.4115 16.9147 24.9395 16.872 24.2995 16.872C23.7022 16.872 22.3155 16.904 20.1395 16.968L19.3715 17V16.328C20.5022 16.328 21.3448 16.136 21.8995 15.752C22.4755 15.368 22.7635 14.6853 22.7635 13.704V5.96C22.7635 4.936 22.6568 4.18933 22.4435 3.72C22.2302 3.22933 21.8675 2.90933 21.3555 2.76C20.8648 2.58933 20.0968 2.504 19.0515 2.504V1.8C20.6088 1.75733 21.8888 1.61867 22.8915 1.384C23.9155 1.14933 24.8328 0.743999 25.6435 0.167999V13.704Z" fill="white"/>
</svg>
