<svg width="87" height="50" viewBox="0 0 87 50" fill="none" xmlns="http://www.w3.org/2000/svg">
<path d="M34.27 3.856L33.7555 4.71357L33.7671 4.72034L34.27 3.856ZM41.924 12.044L41.0356 12.503L41.924 12.044ZM41.835 37.142L42.7266 37.5949L42.7294 37.5892L41.835 37.142ZM33.825 46.042L34.359 46.8875L34.3628 46.8851L33.825 46.042ZM11.13 46.398L10.6155 47.2556L10.6271 47.2624L11.13 46.398ZM3.387 38.121L2.4985 38.5801L2.50465 38.5916L3.387 38.121ZM3.387 13.112L2.49256 12.6648L2.48974 12.6705L3.387 13.112ZM11.308 4.212L11.842 5.0575L11.8458 5.05506L11.308 4.212ZM15.491 5.28L16.1637 6.01994L16.1648 6.01896L15.491 5.28ZM10.863 13.201L9.91109 12.8944L9.90794 12.9046L10.863 13.201ZM13.088 42.215L12.2707 42.7912L13.088 42.215ZM29.731 44.885L29.0572 44.146L29.0518 44.1511L29.0463 44.1562L29.731 44.885ZM34.359 36.964L33.4071 36.6574L33.4039 36.6676L34.359 36.964ZM32.223 7.95L31.4057 8.52615V8.52616L32.223 7.95ZM23.145 1.91899C27.1342 1.91899 30.6616 2.85716 33.7555 4.71349L34.7845 2.9985C31.3517 0.938831 27.4625 -0.0810051 23.145 -0.0810051V1.91899ZM33.7671 4.72034C36.8557 6.51737 39.278 9.1012 41.0356 12.503L42.8124 11.585C40.8914 7.8668 38.2109 4.99196 34.7729 2.99165L33.7671 4.72034ZM41.0356 12.503C42.791 15.9006 43.683 19.8329 43.683 24.326H45.683C45.683 19.5631 44.7357 15.3074 42.8124 11.585L41.0356 12.503ZM43.683 24.326C43.683 28.9359 42.762 33.052 40.9406 36.6948L42.7294 37.5892C44.7054 33.6374 45.683 29.2094 45.683 24.326H43.683ZM40.9434 36.6891C39.1234 40.2723 36.5736 43.1024 33.2872 45.1989L34.3628 46.8851C37.959 44.5909 40.7493 41.4877 42.7266 37.5949L40.9434 36.6891ZM33.291 45.1965C30.0843 47.2218 26.3868 48.246 22.166 48.246V50.246C26.7266 50.246 30.8017 49.1342 34.359 46.8875L33.291 45.1965ZM22.166 48.246C18.2333 48.246 14.7308 47.336 11.6329 45.5337L10.6271 47.2624C14.0559 49.2573 17.9107 50.246 22.166 50.246V48.246ZM11.6445 45.5405C8.54604 43.6814 6.08807 41.0605 4.26935 37.6504L2.50465 38.5916C4.48326 42.3015 7.1873 45.1986 10.6155 47.2555L11.6445 45.5405ZM4.27543 37.662C2.52092 34.2662 1.628 30.3047 1.628 25.75H-0.372C-0.372 30.5699 0.574418 34.8558 2.49857 38.58L4.27543 37.662ZM1.628 25.75C1.628 21.1964 2.52055 17.1378 4.28426 13.5535L2.48974 12.6705C0.57478 16.5622 -0.372 20.9289 -0.372 25.75H1.628ZM4.28143 13.5592C6.10374 9.91459 8.62378 7.09004 11.842 5.05749L10.774 3.36651C7.22822 5.60595 4.4676 8.71473 2.49257 12.6648L4.28143 13.5592ZM11.8458 5.05506C15.1121 2.97141 18.8677 1.91899 23.145 1.91899V-0.0810051C18.5223 -0.0810051 14.3866 1.06191 10.7702 3.36894L11.8458 5.05506ZM22.344 1.521C19.525 1.521 17.0047 2.5466 14.8172 4.54104L16.1648 6.01896C18.012 4.33473 20.0604 3.521 22.344 3.521V1.521ZM14.8183 4.54006C12.6902 6.47471 11.0722 9.28918 9.91114 12.8945L11.8149 13.5075C12.9085 10.1115 14.3758 7.64529 16.1637 6.01994L14.8183 4.54006ZM9.90794 12.9046C8.80242 16.4668 8.261 20.6657 8.261 25.483H10.261C10.261 20.8069 10.7876 16.8178 11.8181 13.4974L9.90794 12.9046ZM8.261 25.483C8.261 33.095 9.54291 38.9216 12.2707 42.7912L13.9053 41.6388C11.5304 38.2698 10.261 32.9417 10.261 25.483H8.261ZM12.2707 42.7912C14.988 46.646 18.5718 48.644 22.967 48.644V46.644C19.2929 46.644 16.2907 45.0227 13.9053 41.6388L12.2707 42.7912ZM22.967 48.644C25.7872 48.644 28.2831 47.6172 30.4157 45.6138L29.0463 44.1562C27.2629 45.8315 25.2495 46.644 22.967 46.644V48.644ZM30.4048 45.624C32.5891 43.6323 34.2097 40.8188 35.3141 37.2604L33.4039 36.6676C32.3723 39.9918 30.9075 42.459 29.0572 44.146L30.4048 45.624ZM35.3109 37.2705C36.4778 33.6468 37.05 29.4151 37.05 24.593H35.05C35.05 29.2642 34.4949 33.2798 33.4071 36.6575L35.3109 37.2705ZM37.05 24.593C37.05 17.0383 35.7674 11.2425 33.0403 7.37384L31.4057 8.52616C33.7813 11.8962 35.05 17.1957 35.05 24.593H37.05ZM33.0403 7.37384C30.323 3.51903 26.7392 1.521 22.344 1.521V3.521C26.0182 3.521 29.0203 5.1423 31.4057 8.52615L33.0403 7.37384ZM79.0912 3.856L78.4548 4.62737H78.4549L79.0912 3.856ZM80.6932 19.253L79.8222 18.7617L79.818 18.7693L80.6932 19.253ZM76.0652 25.483L75.347 24.7872L75.3413 24.7931L75.3357 24.7991L76.0652 25.483ZM68.9452 32.336L68.2763 31.5927L68.2708 31.5976L68.2655 31.6026L68.9452 32.336ZM63.5162 37.498L64.205 38.223L64.2143 38.2142L64.2233 38.2051L63.5162 37.498ZM60.3122 41.147L59.5035 40.5588L58.3485 42.147H60.3122V41.147ZM81.9392 40.791L82.2333 41.7468L82.2546 41.7402L82.2756 41.7327L81.9392 40.791ZM83.6302 39.456L84.5247 39.9032L84.5329 39.8867L84.5406 39.8698L83.6302 39.456ZM84.3422 36.608V35.608H83.4749L83.3523 36.4666L84.3422 36.608ZM85.8552 36.608H86.8552V35.608H85.8552V36.608ZM86.2112 48.445L85.9896 49.4201L87.3411 49.7273L87.2065 48.3479L86.2112 48.445ZM52.1242 48H51.1242V49H52.1242V48ZM52.1242 46.487L51.3972 45.8004L51.1242 46.0894V46.487H52.1242ZM57.2862 41.414L56.6052 40.6816L56.597 40.6894L57.2862 41.414ZM65.7412 32.959L66.4828 33.63L66.4906 33.6212L65.7412 32.959ZM71.5262 24.326L70.6385 23.8657L70.6351 23.8722L70.6318 23.8788L71.5262 24.326ZM53.1922 12.845L52.702 13.7166L53.5798 14.2103L54.0673 13.3291L53.1922 12.845ZM51.7682 12.044L50.8672 11.6102L50.4602 12.4556L51.278 12.9156L51.7682 12.044ZM58.3542 4.123L58.9435 4.93108L58.9542 4.923L58.3542 4.123ZM69.3012 1.91899C73.3036 1.91899 76.3147 2.86174 78.4548 4.62737L79.7276 3.08463C77.1211 0.93425 73.6055 -0.0810051 69.3012 -0.0810051V1.91899ZM78.4549 4.62737C80.5603 6.3644 81.6512 8.8191 81.6512 12.133H83.6512C83.6512 8.32689 82.3688 5.2636 79.7276 3.08463L78.4549 4.62737ZM81.6512 12.133C81.6512 14.3779 81.051 16.5834 79.8223 18.7617L81.5642 19.7443C82.9461 17.2946 83.6512 14.7534 83.6512 12.133H81.6512ZM79.818 18.7693C78.6158 20.9446 77.1265 22.9503 75.347 24.7872L76.7835 26.1788C78.6827 24.2183 80.2786 22.0707 81.5685 19.7367L79.818 18.7693ZM75.3357 24.7991C73.5823 26.6693 71.2317 28.9328 68.2763 31.5927L69.6142 33.0793C72.5921 30.3992 74.9881 28.094 76.7948 26.1669L75.3357 24.7991ZM68.2655 31.6026C65.8306 33.8593 64.0097 35.5904 62.8091 36.7909L64.2233 38.2051C65.3962 37.0323 67.1945 35.3221 69.625 33.0694L68.2655 31.6026ZM62.8275 36.773C61.5974 37.9416 60.4891 39.2036 59.5035 40.5588L61.121 41.7352C62.034 40.4797 63.0618 39.3091 64.205 38.223L62.8275 36.773ZM60.3122 42.147H78.3792V40.147H60.3122V42.147ZM78.3792 42.147C80.0031 42.147 81.3134 42.0298 82.2333 41.7468L81.6451 39.8352C81.0224 40.0268 79.9594 40.147 78.3792 40.147V42.147ZM82.2756 41.7327C83.2668 41.3787 84.0788 40.795 84.5247 39.9032L82.7358 39.0088C82.5884 39.3037 82.273 39.6099 81.6029 39.8493L82.2756 41.7327ZM84.5406 39.8698C84.8955 39.089 85.1492 38.03 85.3322 36.7494L83.3523 36.4666C83.1792 37.678 82.9583 38.5176 82.7199 39.0422L84.5406 39.8698ZM84.3422 37.608H85.8552V35.608H84.3422V37.608ZM84.8552 36.608C84.8552 42.0696 84.9735 46.0572 85.216 48.5421L87.2065 48.3479C86.9743 45.9675 86.8552 42.0637 86.8552 36.608H84.8552ZM86.4329 47.4699C85.6697 47.2964 84.1376 47.1852 81.9505 47.1118C79.7241 47.0371 76.7225 47 72.9502 47V49C76.7133 49 79.6895 49.0371 81.8835 49.1107C84.1167 49.1856 85.4474 49.2969 85.9896 49.4201L86.4329 47.4699ZM72.9502 47H52.1242V49H72.9502V47ZM53.1242 48V46.487H51.1242V48H53.1242ZM52.8512 47.1736C53.8399 46.1268 55.5436 44.4518 57.9754 42.1386L56.597 40.6894C54.1635 43.0042 52.4259 44.7112 51.3972 45.8004L52.8512 47.1736ZM57.9672 42.1463C61.3631 38.9887 64.2032 36.1495 66.4828 33.6299L64.9997 32.2881C62.77 34.7525 59.9734 37.5499 56.6053 40.6817L57.9672 42.1463ZM66.4906 33.6212C68.8056 31.0015 70.7819 28.0508 72.4207 24.7732L70.6318 23.8788C69.0666 27.0092 67.1862 29.8138 64.9919 32.2968L66.4906 33.6212ZM72.414 24.7863C74.1493 21.4397 75.0182 17.8701 75.0182 14.091H73.0182C73.0182 17.5506 72.2258 20.8043 70.6385 23.8657L72.414 24.7863ZM75.0182 14.091C75.0182 10.7511 74.2467 8.05988 72.527 6.20259C70.7938 4.33077 68.2596 3.479 65.1182 3.479V5.479C67.9102 5.479 69.826 6.22923 71.0595 7.56141C72.3064 8.90812 73.0182 11.0229 73.0182 14.091H75.0182ZM65.1182 3.479C59.7752 3.479 55.5156 6.57927 52.3172 12.3609L54.0673 13.3291C57.0396 7.95607 60.7306 5.479 65.1182 5.479V3.479ZM53.6825 11.9734L52.2585 11.1724L51.278 12.9156L52.702 13.7166L53.6825 11.9734ZM52.6692 12.4778C54.1411 9.42096 56.2298 6.90965 58.9434 4.931L57.7651 3.31499C54.7826 5.48968 52.4808 8.25903 50.8672 11.6102L52.6692 12.4778ZM58.9542 4.923C61.5898 2.9463 65.0127 1.91899 69.3012 1.91899V-0.0810051C64.6898 -0.0810051 60.8146 1.0277 57.7542 3.323L58.9542 4.923Z" fill="white"/>
</svg>
