<svg width="32" height="18" viewBox="0 0 32 18" fill="none" xmlns="http://www.w3.org/2000/svg">
<path d="M8.76 0.0719986C10.2533 0.0719986 11.5867 0.423999 12.76 1.128C13.9333 1.81067 14.8507 2.792 15.512 4.072C16.1733 5.352 16.504 6.824 16.504 8.488C16.504 10.1947 16.1627 11.7307 15.48 13.096C14.7973 14.44 13.8373 15.5067 12.6 16.296C11.384 17.064 9.98667 17.448 8.408 17.448C6.936 17.448 5.61333 17.1067 4.44 16.424C3.26667 15.72 2.33867 14.728 1.656 13.448C0.994667 12.168 0.664 10.6853 0.664 9C0.664 7.31467 0.994667 5.8 1.656 4.456C2.33867 3.09067 3.288 2.024 4.504 1.256C5.74133 0.466666 7.16 0.0719986 8.76 0.0719986ZM8.472 0.647999C7.55467 0.647999 6.73333 0.978666 6.008 1.64C5.304 2.28 4.74933 3.22933 4.344 4.488C3.96 5.72533 3.768 7.19733 3.768 8.904C3.768 11.6133 4.22667 13.6187 5.144 14.92C6.06133 16.2213 7.24533 16.872 8.696 16.872C9.61333 16.872 10.424 16.5413 11.128 15.88C11.8533 15.2187 12.408 14.2693 12.792 13.032C13.1973 11.7733 13.4 10.2907 13.4 8.584C13.4 5.896 12.9413 3.90133 12.024 2.6C11.1067 1.29867 9.92267 0.647999 8.472 0.647999ZM25.3555 0.0719986C26.8488 0.0719986 28.0222 0.423999 28.8755 1.128C29.7288 1.832 30.1555 2.824 30.1555 4.104C30.1555 4.97867 29.9208 5.832 29.4515 6.664C29.0035 7.47467 28.4488 8.22133 27.7875 8.904C27.1475 9.58667 26.2942 10.408 25.2275 11.368C24.3528 12.1787 23.7022 12.7973 23.2755 13.224C22.8488 13.6293 22.4648 14.0667 22.1235 14.536H28.6195C29.1955 14.536 29.6222 14.4933 29.8995 14.408C30.1982 14.3013 30.4008 14.1413 30.5075 13.928C30.6142 13.6933 30.6995 13.352 30.7635 12.904H31.3075C31.3075 14.8667 31.3502 16.2853 31.4355 17.16C30.9662 17.0533 29.3768 17 26.6675 17H19.1795V16.456C19.5422 16.072 20.1608 15.464 21.0355 14.632C22.2515 13.5013 23.2648 12.488 24.0755 11.592C24.8862 10.6747 25.5795 9.64 26.1555 8.488C26.7528 7.336 27.0515 6.10933 27.0515 4.808C27.0515 2.504 25.9848 1.352 23.8515 1.352C22.1022 1.352 20.6728 2.35467 19.5635 4.36L19.0515 4.072C19.6062 2.92 20.3955 1.97067 21.4195 1.224C22.4435 0.455999 23.7555 0.0719986 25.3555 0.0719986Z" fill="white"/>
</svg>
