<svg width="31" height="22" viewBox="0 0 31 22" fill="none" xmlns="http://www.w3.org/2000/svg">
<path d="M8.76 0.0719986C10.2533 0.0719986 11.5867 0.423999 12.76 1.128C13.9333 1.81067 14.8507 2.792 15.512 4.072C16.1733 5.352 16.504 6.824 16.504 8.488C16.504 10.1947 16.1627 11.7307 15.48 13.096C14.7973 14.44 13.8373 15.5067 12.6 16.296C11.384 17.064 9.98667 17.448 8.408 17.448C6.936 17.448 5.61333 17.1067 4.44 16.424C3.26667 15.72 2.33867 14.728 1.656 13.448C0.994667 12.168 0.664 10.6853 0.664 9C0.664 7.31467 0.994667 5.8 1.656 4.456C2.33867 3.09067 3.288 2.024 4.504 1.256C5.74133 0.466666 7.16 0.0719986 8.76 0.0719986ZM8.472 0.647999C7.55467 0.647999 6.73333 0.978666 6.008 1.64C5.304 2.28 4.74933 3.22933 4.344 4.488C3.96 5.72533 3.768 7.19733 3.768 8.904C3.768 11.6133 4.22667 13.6187 5.144 14.92C6.06133 16.2213 7.24533 16.872 8.696 16.872C9.61333 16.872 10.424 16.5413 11.128 15.88C11.8533 15.2187 12.408 14.2693 12.792 13.032C13.1973 11.7733 13.4 10.2907 13.4 8.584C13.4 5.896 12.9413 3.90133 12.024 2.6C11.1067 1.29867 9.92267 0.647999 8.472 0.647999ZM24.8115 0.0719986C26.1555 0.0719986 27.2542 0.402665 28.1075 1.064C28.9822 1.72533 29.4195 2.61067 29.4195 3.72C29.4195 4.89333 28.9502 5.94933 28.0115 6.888C27.0942 7.82667 25.9742 8.53067 24.6515 9C26.2942 9.04267 27.6915 9.48 28.8435 10.312C29.9955 11.144 30.5715 12.328 30.5715 13.864C30.5715 15.4 29.9742 16.776 28.7795 17.992C27.6062 19.208 26.1022 20.1467 24.2675 20.808C22.4542 21.4907 20.6088 21.832 18.7315 21.832V21.256C20.2462 21.2133 21.6755 20.8933 23.0195 20.296C24.3635 19.72 25.4515 18.8773 26.2835 17.768C27.1155 16.68 27.5315 15.3787 27.5315 13.864C27.5315 12.6053 27.2222 11.5707 26.6035 10.76C25.9848 9.928 25.1635 9.46933 24.1395 9.384C24.0542 9.42667 23.8302 9.52267 23.4675 9.672C23.1262 9.8 22.8488 9.864 22.6355 9.864C22.2942 9.864 22.1235 9.72533 22.1235 9.448C22.1235 9.256 22.1982 9.10667 22.3475 9C22.5182 8.89333 22.7208 8.84 22.9555 8.84C23.0835 8.84 23.2542 8.86133 23.4675 8.904C23.7022 8.92533 23.9048 8.94667 24.0755 8.968C24.9075 8.328 25.5262 7.61333 25.9315 6.824C26.3368 6.03467 26.5395 5.21333 26.5395 4.36C26.5395 3.37867 26.2942 2.65333 25.8035 2.184C25.3128 1.71467 24.6302 1.48 23.7555 1.48C22.8595 1.48 22.0488 1.72533 21.3235 2.216C20.5982 2.68533 19.9902 3.38933 19.4995 4.328L18.9555 4.072C20.1928 1.40533 22.1448 0.0719986 24.8115 0.0719986Z" fill="white"/>
</svg>
