<svg width="30" height="24" viewBox="0 0 30 24" fill="none" xmlns="http://www.w3.org/2000/svg">
<path d="M8.76 2.072C10.2533 2.072 11.5867 2.424 12.76 3.128C13.9333 3.81067 14.8507 4.792 15.512 6.072C16.1733 7.352 16.504 8.824 16.504 10.488C16.504 12.1947 16.1627 13.7307 15.48 15.096C14.7973 16.44 13.8373 17.5067 12.6 18.296C11.384 19.064 9.98667 19.448 8.408 19.448C6.936 19.448 5.61333 19.1067 4.44 18.424C3.26667 17.72 2.33867 16.728 1.656 15.448C0.994667 14.168 0.664 12.6853 0.664 11C0.664 9.31467 0.994667 7.8 1.656 6.456C2.33867 5.09067 3.288 4.024 4.504 3.256C5.74133 2.46667 7.16 2.072 8.76 2.072ZM8.472 2.648C7.55467 2.648 6.73333 2.97867 6.008 3.64C5.304 4.28 4.74933 5.22933 4.344 6.488C3.96 7.72533 3.768 9.19733 3.768 10.904C3.768 13.6133 4.22667 15.6187 5.144 16.92C6.06133 18.2213 7.24533 18.872 8.696 18.872C9.61333 18.872 10.424 18.5413 11.128 17.88C11.8533 17.2187 12.408 16.2693 12.792 15.032C13.1973 13.7733 13.4 12.2907 13.4 10.584C13.4 7.896 12.9413 5.90133 12.024 4.6C11.1067 3.29867 9.92267 2.648 8.472 2.648ZM28.2355 0.92C28.2355 3.096 28.2782 4.65333 28.3635 5.592C27.9155 5.48533 26.4328 5.432 23.9155 5.432H20.5235L20.1395 11.608C20.7368 11.3093 21.3128 11.0747 21.8675 10.904C22.4222 10.7333 23.0942 10.648 23.8835 10.648C25.7395 10.648 27.1475 11.1067 28.1075 12.024C29.0675 12.92 29.5475 14.104 29.5475 15.576C29.5475 17.1547 29.0248 18.5627 27.9795 19.8C26.9555 21.0587 25.6222 22.0293 23.9795 22.712C22.3582 23.3947 20.6942 23.736 18.9875 23.736V23.16C20.2888 23.1387 21.5048 22.8507 22.6355 22.296C23.7875 21.7413 24.7155 20.92 25.4195 19.832C26.1448 18.744 26.5075 17.432 26.5075 15.896C26.5075 14.552 26.1555 13.5067 25.4515 12.76C24.7475 11.992 23.7555 11.608 22.4755 11.608C21.9635 11.608 21.5262 11.6507 21.1635 11.736C20.8008 11.8213 20.3635 11.96 19.8515 12.152L19.5315 11.96L20.1395 2.424C20.5662 2.50933 21.1422 2.552 21.8675 2.552H25.4835C26.0595 2.552 26.4862 2.50933 26.7635 2.424C27.0622 2.31733 27.2648 2.15733 27.3715 1.944C27.4782 1.70933 27.5635 1.368 27.6275 0.92H28.2355Z" fill="white"/>
</svg>
