<svg width="30" height="34" viewBox="0 0 30 34" fill="none" xmlns="http://www.w3.org/2000/svg">
<path d="M26.877 20.656C28.5197 21.6313 29.341 22.735 29.341 23.967C29.341 24.429 29.2127 24.8653 28.956 25.276C28.494 26.0973 27.7753 26.508 26.8 26.508C26.03 26.508 25.106 26.2 24.028 25.584C23.258 25.122 22.411 24.4803 21.487 23.659C20.563 22.8377 19.6133 21.9137 18.638 20.887L15.173 17.499C15.481 18.8337 15.866 20.271 16.328 21.811C17.3033 25.353 17.8167 27.817 17.868 29.203C17.8167 30.6403 17.5087 31.6927 16.944 32.36C16.3793 33.0273 15.6863 33.361 14.865 33.361C14.095 33.361 13.4533 33.0273 12.94 32.36C12.4267 31.6927 12.17 30.6403 12.17 29.203C12.17 28.3303 12.2983 27.2523 12.555 25.969C12.863 24.6857 13.2223 23.2997 13.633 21.811C13.9923 20.6817 14.3773 19.2443 14.788 17.499C14.788 17.499 13.7613 18.5257 11.708 20.579C10.63 21.657 9.57767 22.658 8.551 23.582C7.57567 24.506 6.703 25.199 5.933 25.661C4.95767 26.2257 4.05933 26.508 3.238 26.508C2.10867 26.508 1.313 26.0717 0.851 25.199C0.645667 24.8397 0.543 24.4547 0.543 24.044C0.543 22.9147 1.39 21.811 3.084 20.733C3.854 20.271 4.75233 19.886 5.779 19.578C6.80567 19.2187 8.21733 18.808 10.014 18.346C11.6053 17.9867 13.094 17.6017 14.48 17.191C12.17 16.5237 10.6557 16.113 9.937 15.959C8.551 15.5483 7.242 15.1633 6.01 14.804C4.778 14.3933 3.777 13.9827 3.007 13.572C1.36433 12.5967 0.543 11.493 0.543 10.261C0.543 9.79899 0.671333 9.36266 0.928 8.952C1.39 8.13066 2.10867 7.71999 3.084 7.71999C3.854 7.71999 4.778 8.028 5.856 8.644C6.626 9.106 7.49867 9.77333 8.474 10.646C9.44933 11.5187 10.4503 12.494 11.477 13.572C12.401 14.5473 13.479 15.6253 14.711 16.806L13.556 12.494C13.0427 10.646 12.6577 9.183 12.401 8.10499C12.1957 6.97566 12.093 5.949 12.093 5.025C12.093 3.58766 12.3753 2.53533 12.94 1.868C13.5047 1.20066 14.172 0.866996 14.942 0.866996C15.712 0.866996 16.3537 1.20066 16.867 1.868C17.4317 2.53533 17.714 3.58766 17.714 5.025C17.714 5.89766 17.56 6.97566 17.252 8.259C16.9953 9.54233 16.6617 10.9283 16.251 12.417C15.8917 13.5463 15.5067 14.9837 15.096 16.729C15.096 16.729 16.1227 15.7023 18.176 13.649C19.254 12.571 20.2807 11.57 21.256 10.646C22.2827 9.722 23.181 9.029 23.951 8.567C24.9263 8.00233 25.8247 7.71999 26.646 7.71999C27.8267 7.71999 28.6223 8.15633 29.033 9.029C29.2383 9.38833 29.341 9.77333 29.341 10.184C29.341 11.416 28.494 12.5197 26.8 13.495C26.03 13.957 25.1317 14.3677 24.105 14.727C23.0783 15.035 21.6667 15.42 19.87 15.882C18.2787 16.2413 16.79 16.6263 15.404 17.037C17.7653 17.7043 19.2797 18.115 19.947 18.269C21.333 18.6797 22.642 19.0903 23.874 19.501C25.106 19.8603 26.107 20.2453 26.877 20.656Z" fill="#FCFCFC" fill-opacity="0.14"/>
</svg>
