<svg width="116" height="34" viewBox="0 0 116 34" fill="none" xmlns="http://www.w3.org/2000/svg">
<path fill-rule="evenodd" clip-rule="evenodd" d="M46.503 0.639738C45.9658 0.639738 45.7276 0.958897 45.5282 1.41559C32.988 30.2324 31.9356 32.5105 31.9356 32.5105C39.0421 32.5105 39.0421 32.5105 39.0421 32.5105C40.521 28.8953 40.521 28.8953 40.521 28.8953C51.2278 28.8953 51.2278 28.8953 51.2278 28.8953C52.7122 32.5105 52.7122 32.5105 52.7122 32.5105C61.0704 32.5105 61.0704 32.5105 61.0704 32.5105C61.0704 32.5105 60.3559 31.0303 47.4778 1.41559C47.2785 0.958897 47.0404 0.639738 46.503 0.639738ZM42.7809 23.3817C45.8661 15.8378 45.8661 15.8378 45.8661 15.8378C48.9623 23.3817 48.9623 23.3817 48.9623 23.3817H42.7809ZM82.0021 18.0334C84.4448 16.5806 86.2948 14.0439 86.2948 10.4067C86.2948 7.55086 85.1483 5.19579 83.1542 3.60572C81.1326 1.98788 78.7951 1.11287 74.0149 1.11287C63.7901 1.11287 63.7901 1.11287 63.7901 1.11287C63.7901 32.5105 63.7901 32.5105 63.7901 32.5105C71.3452 32.5105 71.3452 32.5105 71.3452 32.5105C71.3452 20.823 71.3452 20.823 71.3452 20.823C73.6881 20.823 73.6881 20.823 73.6881 20.823C76.2361 20.823 77.5212 21.7859 78.5901 24.3337C79.493 26.4906 80.1299 29.0494 80.9609 32.5105C89.3856 32.5105 89.3856 32.5105 89.3856 32.5105C88.1891 28.9503 87.5909 27.2665 86.6937 24.7574C85.464 21.3239 83.974 19.2109 82.0021 18.0334ZM77.1722 14.1816C76.2583 14.8803 75.0785 15.1004 72.9571 15.1004C71.3452 15.1004 71.3452 15.1004 71.3452 15.1004C71.3452 15.1004 71.3286 6.73116 71.3452 6.73116C72.9571 6.73116 72.9571 6.73116 72.9571 6.73116C75.1726 6.73116 76.2748 6.97321 77.1667 7.64442C78.1858 8.41478 78.64 9.57033 78.64 10.9075C78.64 12.3656 78.1305 13.4386 77.1722 14.1816ZM14.9864 14.4181C2.15264 1.66324 2.15264 1.66324 2.15264 1.66324C1.76492 1.28354 1.37721 1.01396 0.767944 1.01396C0.767944 32.5105 0.767944 32.5105 0.767944 32.5105C7.36489 32.5105 7.36489 32.5105 7.36489 32.5105C7.36489 17.45 7.36489 17.45 7.36489 17.45C14.9864 25.0215 14.9864 25.0215 14.9864 25.0215C22.6135 17.45 22.6135 17.45 22.6135 17.45C22.6135 32.5105 22.6135 32.5105 22.6135 32.5105C29.2104 32.5105 29.2104 32.5105 29.2104 32.5105C29.2104 1.01396 29.2104 1.01396 29.2104 1.01396C28.6012 1.01396 28.2135 1.28354 27.8257 1.66324L14.9864 14.4181ZM112.909 16.8447C109.542 13.6643 103.432 13.1194 101.017 11.2487C100.07 10.5168 99.7323 9.43828 100.043 8.4093C100.425 7.13279 101.704 6.2964 103.582 6.2964C106.169 6.2964 108.489 7.46839 110.096 9.36678C114.41 4.88223 114.41 4.88223 114.41 4.88223C111.868 2.19704 107.808 0.579315 103.532 0.579315C98.5469 0.579315 94.7861 2.97288 93.1078 6.79158C91.806 9.75744 92.2548 12.8499 93.8555 15.073C96.9517 19.3759 103.488 19.508 106.318 21.7144C107.326 22.5014 107.891 23.7724 107.287 25.1426C106.767 26.3421 105.454 27.1565 103.305 27.2115C100.325 27.283 97.6662 25.8964 95.711 23.4698C91.3906 27.9598 91.3906 27.9598 91.3906 27.9598C94.2487 31.399 98.5027 33.0553 103.643 33.0553C108.639 33.0553 113.026 31.1239 114.815 27.0078C116.382 23.4093 115.817 19.5851 112.909 16.8447Z" fill="black" fill-opacity="0.18"/>
</svg>
