<svg width="52" height="104" viewBox="0 0 52 104" fill="none" xmlns="http://www.w3.org/2000/svg">
<path d="M3.0464 13.0012C3.0464 13.0012 -4.51711 28.5213 4.19123 44.7398C4.19123 44.7398 3.0464 38.4852 5.60318 27.1857C5.59936 27.1857 0.260645 22.0645 3.0464 13.0012Z" fill="url(#paint0_linear_2_272)"/>
<path d="M33.4958 92.9333C33.4958 92.9333 31.1489 102.233 35.9381 102.912C35.9381 102.912 40.5937 98.2949 42.2232 90.2849L40.4067 87.7052L33.4958 92.9333Z" fill="url(#paint1_linear_2_272)"/>
<path d="M38.9145 70.3271C38.9145 70.3271 26.3213 89.6061 9.63733 91.9148C9.63733 91.9148 15.476 97.0742 22.5358 95.7309L36.1135 81.8823L38.9145 70.3271Z" fill="url(#paint2_linear_2_272)"/>
<path d="M36.1126 81.8666C36.1126 81.8666 19.5469 95.3107 17.2382 104C17.2382 104 34.3038 97.8102 40.3867 87.7052L36.1126 81.8666Z" fill="url(#paint3_linear_2_272)"/>
<path d="M38.4217 70.3271C38.4217 70.3271 30.8162 84.0422 42.2378 90.2853L43.3216 87.7057C43.3216 87.7057 38.6393 83.0348 41.6578 74.3722L38.4217 70.3271Z" fill="url(#paint4_linear_2_272)"/>
<path d="M41.3951 74.0588C41.3951 74.0588 38.1476 82.9542 43.3032 87.7052C43.3032 87.7052 45.5928 81.5995 46.6995 76.5736L41.3951 74.0588Z" fill="url(#paint5_linear_2_272)"/>
<path d="M23.9286 58.3864C23.9286 58.3864 27.5577 65.1752 23.8943 70.8803H31.8356C31.8356 70.8803 34.7511 68.438 32.8545 59.4739L23.9286 58.3864Z" fill="url(#paint6_linear_2_272)"/>
<path d="M21.8557 18.3744C21.8557 18.3744 60.5509 33.8067 49.5644 80.3746C49.5644 80.3746 49.1446 41.1374 21.8557 18.3744Z" fill="url(#paint7_linear_2_272)"/>
<path d="M19.8188 21.5875C19.8188 21.5875 39.506 36.5199 38.4223 71.5479C38.4223 71.5479 46.7032 79.016 49.5538 80.3746C49.5538 80.3746 51.5191 43.5797 21.8566 18.3744L19.8188 21.5875Z" fill="url(#paint8_linear_2_272)"/>
<path d="M33.8722 0C33.8722 0 1.89711 7.33073 3.72502 43.786C3.72502 43.786 9.44917 58.0391 29.9989 61.0958C30.0027 61.0958 6.17496 23.4194 33.8722 0Z" fill="url(#paint9_linear_2_272)"/>
<path d="M27.5681 2.30886C27.5681 2.30886 13.8302 -5.70494 3.65644 11.8109C3.65644 11.8109 -1.73188 20.5155 5.37751 27.705C5.37751 27.705 11.6931 11.6736 27.5681 2.30886Z" fill="url(#paint10_linear_2_272)"/>
<path d="M21.0427 22.0382C21.0427 22.0382 17.5128 44.9348 38.4213 57.4287C38.4213 57.4287 38.4251 38.6497 21.0427 22.0382Z" fill="url(#paint11_linear_2_272)"/>
<path d="M21.0428 22.0382C21.0428 22.0382 14.9371 45.5568 38.4214 71.5483C38.4214 71.5483 39.5891 66.6637 38.326 55.7992C38.326 55.7992 19.3332 44.7402 21.0428 22.0382Z" fill="url(#paint12_linear_2_272)"/>
<path d="M16.2608 71.7429C15.6044 71.7429 15.0702 71.3842 15.0663 70.724C15.0625 70.0638 15.593 69.7509 16.257 69.7471L38.4132 69.8348C38.5617 69.8195 38.7118 69.8351 38.854 69.8805C38.9962 69.9259 39.1275 70.0002 39.2396 70.0987C39.3518 70.1973 39.4423 70.3179 39.5057 70.4531C39.569 70.5882 39.6037 70.735 39.6077 70.8843C39.6077 71.5483 39.0811 71.8459 38.4171 71.8497L16.2684 71.7429H16.2608Z" fill="url(#paint13_linear_2_272)"/>
<path d="M25.8664 9.15869C25.8664 9.15869 3.86281 30.3113 13.445 54.9519C13.445 54.9519 22.0771 61.3515 30.358 61.0996C30.358 61.0958 12.0827 32.7269 25.8664 9.15869Z" fill="url(#paint14_linear_2_272)"/>
<path d="M12.1436 75.2494C11.1692 75.2494 10.2167 74.9605 9.40655 74.4191C8.59638 73.8778 7.96492 73.1084 7.59204 72.2082C7.21916 71.3079 7.1216 70.3174 7.31169 69.3617C7.50178 68.406 7.971 67.5282 8.65999 66.8392C9.34899 66.1502 10.2268 65.681 11.1825 65.4909C12.1382 65.3008 13.1287 65.3984 14.0289 65.7713C14.9292 66.1441 15.6986 66.7756 16.2399 67.5858C16.7813 68.3959 17.0702 69.3484 17.0702 70.3228C17.0692 71.6291 16.5498 72.8816 15.6261 73.8053C14.7024 74.729 13.4499 75.2484 12.1436 75.2494ZM12.1436 67.7928C11.6423 67.7928 11.1522 67.9415 10.7355 68.2201C10.3187 68.4987 9.99392 68.8946 9.80224 69.3579C9.61057 69.8211 9.56062 70.3308 9.6587 70.8224C9.75678 71.314 9.99848 71.7655 10.3532 72.1197C10.708 72.474 11.1598 72.715 11.6516 72.8123C12.1434 72.9097 12.653 72.8589 13.1159 72.6666C13.5789 72.4742 13.9744 72.1488 14.2523 71.7316C14.5303 71.3144 14.6783 70.8242 14.6775 70.3228C14.6775 69.9903 14.6119 69.6609 14.4846 69.3537C14.3572 69.0465 14.1705 68.7674 13.9351 68.5325C13.6998 68.2975 13.4204 68.1112 13.113 67.9843C12.8056 67.8573 12.4762 67.7923 12.1436 67.7928Z" fill="url(#paint15_linear_2_272)"/>
<path d="M16.8981 13.0015C17.9582 13.0015 18.8176 12.1421 18.8176 11.082C18.8176 10.0219 17.9582 9.16248 16.8981 9.16248C15.838 9.16248 14.9786 10.0219 14.9786 11.082C14.9786 12.1421 15.838 13.0015 16.8981 13.0015Z" fill="#0E192D"/>
<defs>
<linearGradient id="paint0_linear_2_272" x1="995.741" y1="708.075" x2="577.259" y2="2317.04" gradientUnits="userSpaceOnUse">
<stop stop-color="#27D885"/>
<stop offset="1" stop-color="#2B6A67"/>
</linearGradient>
<linearGradient id="paint1_linear_2_272" x1="39.7465" y1="86.6023" x2="32.6181" y2="106.969" gradientUnits="userSpaceOnUse">
<stop stop-color="#2B6A67"/>
<stop offset="1" stop-color="#27AF85"/>
</linearGradient>
<linearGradient id="paint2_linear_2_272" x1="6546.64" y1="6062.16" x2="7199.83" y2="5106.47" gradientUnits="userSpaceOnUse">
<stop stop-color="#2B6A67"/>
<stop offset="1" stop-color="#27AF85"/>
</linearGradient>
<linearGradient id="paint3_linear_2_272" x1="28.2362" y1="99.3176" x2="31.9645" y2="76.9285" gradientUnits="userSpaceOnUse">
<stop stop-color="#27AF85"/>
<stop offset="1" stop-color="#2B6A67"/>
</linearGradient>
<linearGradient id="paint4_linear_2_272" x1="2041.46" y1="4692.85" x2="2091.54" y2="3700.71" gradientUnits="userSpaceOnUse">
<stop stop-color="#27D885"/>
<stop offset="1" stop-color="#2B6A67"/>
</linearGradient>
<linearGradient id="paint5_linear_2_272" x1="1785.48" y1="3032.18" x2="2092.83" y2="2778.2" gradientUnits="userSpaceOnUse">
<stop stop-color="#2B6A67"/>
<stop offset="1" stop-color="#27AF85"/>
</linearGradient>
<linearGradient id="paint6_linear_2_272" x1="34.8427" y1="59.6876" x2="22.1732" y2="68.6746" gradientUnits="userSpaceOnUse">
<stop stop-color="#C4C737"/>
<stop offset="1" stop-color="#43865D"/>
</linearGradient>
<linearGradient id="paint7_linear_2_272" x1="9697.16" y1="7855.2" x2="7607.44" y2="7901.57" gradientUnits="userSpaceOnUse">
<stop stop-color="#27D885"/>
<stop offset="1" stop-color="#2B6A67"/>
</linearGradient>
<linearGradient id="paint8_linear_2_272" x1="7748.41" y1="7367.88" x2="7210.79" y2="13161.3" gradientUnits="userSpaceOnUse">
<stop stop-color="#27D885"/>
<stop offset="1" stop-color="#2B6A67"/>
</linearGradient>
<linearGradient id="paint9_linear_2_272" x1="13.9293" y1="17.1343" x2="29.0296" y2="34.1923" gradientUnits="userSpaceOnUse">
<stop stop-color="#BAC937"/>
<stop offset="1" stop-color="#00475D"/>
</linearGradient>
<linearGradient id="paint10_linear_2_272" x1="4465.7" y1="1005.93" x2="6219.28" y2="1005.93" gradientUnits="userSpaceOnUse">
<stop stop-color="#27D885"/>
<stop offset="1" stop-color="#2B6A67"/>
</linearGradient>
<linearGradient id="paint11_linear_2_272" x1="28.9535" y1="22.7633" x2="30.1365" y2="56.8792" gradientUnits="userSpaceOnUse">
<stop stop-color="#BAC937"/>
<stop offset="1" stop-color="#00665D"/>
</linearGradient>
<linearGradient id="paint12_linear_2_272" x1="4588.5" y1="6376.66" x2="4650.43" y2="8219.12" gradientUnits="userSpaceOnUse">
<stop stop-color="#BAC937"/>
<stop offset="1" stop-color="#00665D"/>
</linearGradient>
<linearGradient id="paint13_linear_2_272" x1="15.0663" y1="70.7812" x2="39.6153" y2="70.7812" gradientUnits="userSpaceOnUse">
<stop stop-color="#D1DB37"/>
<stop offset="1" stop-color="#43865D"/>
</linearGradient>
<linearGradient id="paint14_linear_2_272" x1="4318.3" y1="4668.91" x2="6215.16" y2="5923.61" gradientUnits="userSpaceOnUse">
<stop stop-color="#BAC937"/>
<stop offset="1" stop-color="#00665D"/>
</linearGradient>
<linearGradient id="paint15_linear_2_272" x1="1850.06" y1="1881.14" x2="2104.47" y2="1881.14" gradientUnits="userSpaceOnUse">
<stop stop-color="#D1DB37"/>
<stop offset="1" stop-color="#43865D"/>
</linearGradient>
</defs>
</svg>
