<svg width="71" height="37" viewBox="0 0 71 37" fill="none" xmlns="http://www.w3.org/2000/svg">
<path d="M0.824827 36.3253C0.736895 36.1873 0.687256 36.0284 0.681009 35.8649C0.674763 35.7014 0.712129 35.5392 0.789281 35.3949C0.866428 35.2506 0.980581 35.1294 1.12002 35.0438C1.25946 34.9582 1.41917 34.9112 1.58276 34.9077L21.3965 34.7051L12.6206 18.8629C12.5314 18.6994 12.4938 18.5128 12.5127 18.3275C12.5316 18.1423 12.6061 17.9671 12.7265 17.825C12.8468 17.6829 13.0074 17.5806 13.187 17.5315C13.3666 17.4824 13.5569 17.4889 13.7328 17.55L32.996 24.3474L38.0584 1.15067C38.0997 0.96223 38.1991 0.791485 38.3425 0.662471C38.486 0.533457 38.6662 0.452669 38.858 0.43148C39.0504 0.410062 39.2447 0.450152 39.413 0.545996C39.5813 0.641842 39.7149 0.788518 39.7946 0.964986L45.5503 13.8125L51.3203 2.00752C51.4081 1.82883 51.5514 1.68337 51.7288 1.59288C51.9061 1.50239 52.108 1.47174 52.3043 1.5055C52.4998 1.54037 52.6787 1.63782 52.8141 1.78317C52.9494 1.92852 53.0339 2.11391 53.0548 2.31143L55.3092 24.2614L69.055 17.823C69.1087 17.6827 69.196 17.5579 69.3093 17.4593C69.4225 17.3608 69.5583 17.2915 69.7045 17.2577C69.8508 17.2239 70.0032 17.2266 70.1482 17.2654C70.2932 17.3043 70.4265 17.3782 70.5363 17.4806C70.646 17.5831 70.729 17.7109 70.7778 17.8529C70.8265 17.9949 70.8397 18.1467 70.8161 18.2949C70.7925 18.4432 70.7328 18.5834 70.6423 18.7032C70.5518 18.823 70.4333 18.9188 70.2971 18.982L64.1446 34.9348C64.1014 35.0471 64.0364 35.1499 63.9535 35.2372C63.8705 35.3244 63.7712 35.3945 63.6612 35.4434C63.5511 35.4923 63.4325 35.519 63.3122 35.5221C63.1918 35.5252 63.072 35.5045 62.9596 35.4612C62.8473 35.418 62.7445 35.3531 62.6572 35.2701C62.57 35.1872 62.4999 35.0878 62.451 34.9778C62.4021 34.8678 62.3754 34.7492 62.3723 34.6288C62.3693 34.5085 62.3899 34.3887 62.4332 34.2763L67.7658 20.4471L54.9174 26.468C54.7851 26.5299 54.6399 26.5593 54.4939 26.5537C54.348 26.5482 54.2054 26.5078 54.0782 26.436C53.951 26.3642 53.8428 26.263 53.7627 26.1409C53.6825 26.0188 53.6327 25.8793 53.6174 25.734L51.5575 5.69756L46.3421 16.3824C46.1825 16.7051 45.8554 16.908 45.4977 16.9006C45.3235 16.8975 45.1538 16.8448 45.0085 16.7487C44.8632 16.6526 44.7483 16.5171 44.6772 16.358L39.2533 4.26798L34.5622 25.7602C34.5338 25.8874 34.4788 26.0071 34.4008 26.1115C34.3227 26.2158 34.2235 26.3025 34.1096 26.3657C33.9957 26.429 33.8696 26.4673 33.7398 26.4783C33.61 26.4893 33.4793 26.4726 33.3563 26.4294L15.405 20.0867L23.7488 35.1633C23.8242 35.3026 23.8624 35.459 23.8598 35.6173C23.8572 35.7757 23.8139 35.9308 23.7339 36.0675C23.654 36.2043 23.5402 36.3181 23.4035 36.3981C23.2668 36.4781 23.1118 36.5216 22.9534 36.5243L1.60179 36.7406C1.27851 36.7443 0.993458 36.5801 0.824827 36.3253Z" fill="#518F5A"/>
</svg>
