<svg width="38" height="58" viewBox="0 0 38 58" fill="none" xmlns="http://www.w3.org/2000/svg">
<path d="M36.951 32.9371C29.5944 32.9371 23.2028 38.2517 20.0559 46.014L20.0559 1.16083C20.0559 0.587408 19.5804 0.111883 19.007 0.111883C18.4336 0.111883 17.958 0.587408 17.958 1.16083L17.958 46.014C14.7972 38.2657 8.41958 32.9371 1.06294 32.9371C0.48951 32.9371 0.0139858 33.4126 0.0139858 33.986C0.0139858 34.5594 0.48951 35.035 1.06294 35.035C10.3776 35.035 17.958 44.8671 17.958 56.951C17.958 57.5245 18.4196 58 19.007 58C19.5944 58 20.0559 57.5245 20.0559 56.951C20.0559 44.8671 27.6364 35.035 36.951 35.035C37.5245 35.035 38 34.5734 38 33.986C38 33.3986 37.5245 32.9371 36.951 32.9371Z" fill="white"/>
</svg>
