<svg width="28" height="32" viewBox="0 0 28 32" fill="none" xmlns="http://www.w3.org/2000/svg">
<path fill-rule="evenodd" clip-rule="evenodd" d="M27.1507 16.8234C27.3659 16.4411 27.4229 15.9896 27.3095 15.5658C27.1961 15.1419 26.9213 14.7792 26.5438 14.5554L2.87382 0.790577C2.62784 0.647516 2.34837 0.572105 2.06382 0.572004C1.16124 0.572004 0.428389 1.31772 0.428389 2.23572L0.428389 29.7654C0.428463 30.0545 0.502842 30.3388 0.644386 30.5909C0.748711 30.7793 0.88957 30.9451 1.05872 31.0784C1.22788 31.2118 1.42192 31.3101 1.62952 31.3676C1.83711 31.425 2.05409 31.4405 2.26774 31.4131C2.48139 31.3857 2.68744 31.316 2.87382 31.208L26.5438 17.4457C26.7975 17.2977 27.007 17.0847 27.1507 16.8286V16.8234Z" fill="white"/>
</svg>
